<svg fill="none" height="255" viewBox="0 0 484 255" width="484" xmlns="http://www.w3.org/2000/svg" xmlns:xlink="http://www.w3.org/1999/xlink"><clipPath id="a"><path d="m28.3628 209.682h454.743v44.3888h-454.743z"/></clipPath><g fill="#fff"><path d="m95.7995 3.59937v104.56663h-29.9909v-39.5144h-35.6463v39.5144h-29.90522v-104.56663h29.90522v39.08313h35.6463v-39.08313z"/><path d="m119.107 3.59906h32.818l37.703 104.56694h-32.476l-5.312-17.4279h-33.076l-5.313 17.4279h-32.0472zm6.598 64.62094h19.194l-9.426-31.4046z"/><path d="m238.556 1.18301c26.649 0 46.872 15.44349 50.985 41.84399h-29.477c-2.142-10.2669-9.597-16.565-20.48-16.565-13.024 0-22.193 9.4903-22.193 29.1613 0 19.7573 9.169 29.2477 22.193 29.2477 10.883 0 18.766-6.8159 20.908-16.7376h29.391c-4.113 26.573-24.506 41.9306-51.241 41.9306-32.39 0-52.441-20.4479-52.441-54.527-.086-33.9065 19.965-54.35399 52.355-54.35399z"/><path d="m316.361 40.8704 31.276-37.18507h37.96l-37.703 42.10277 39.331 62.4639h-36.931l-23.393-38.8242-10.54 11.8199v27.0043h-31.362v-104.65294h31.362z"/><path d="m66.0656 107.303h32.8186l37.7028 104.567h-32.476l-5.3124-17.428h-33.1614l-5.3127 17.428h-31.9617zm6.598 64.535h19.1942l-9.4257-31.405z"/><path d="m129.818 133.1h-30.9337v-25.797h91.9437v25.797h-31.105v78.77h-29.905z"/><path d="m285.428 107.303v104.567h-29.906v-39.515h-35.646v39.515h-29.905v-104.567h29.905v39.083h35.646v-39.083z"/><path d="m335.641 213.681c-31.79 0-54.412-19.929-54.412-54.354 0-34.424 22.622-54.526 54.412-54.526s54.412 20.016 54.412 54.526c0 34.425-22.622 54.354-54.412 54.354zm0-25.192c11.996 0 23.307-8.542 23.307-29.162s-11.311-29.247-23.307-29.247-23.307 8.627-23.307 29.247c-.086 20.62 11.225 29.162 23.307 29.162z"/><path d="m445.922 211.784-31.791-66.606v66.606h-27.677v-104.481h36.846l31.962 66.433v-66.433h27.677v104.567h-37.017z"/></g><path d="m482.939 107.303h-27.677v-27.9537z" fill="#106cff"/><path d="m27.6773 136.637h-27.6773v-27.954z" fill="#fff915"/><path d="m247.553 211.697h-27.677v-27.867z" fill="#f33131"/><g clip-path="url(#a)" fill="#fff"><path d="m40.0613 210.682v15.396c1.3998-2.799 4.7994-5.098 9.4988-5.098 6.9991 0 13.7983 5.598 13.7983 16.496 0 10.897-6.7992 16.595-13.7983 16.595-4.6994 0-8.099-2.299-9.4988-5.098v4.299h-11.6985v-42.59zm5.2993 34.592c3.2996 0 5.4994-3.3 5.4994-7.798 0-4.499-2.0998-7.698-5.4994-7.698-3.2995 0-5.6992 2.999-5.6992 7.698 0 4.698 2.3997 7.798 5.6992 7.798z"/><path d="m89.3551 232.677c-.8998-.2-1.7997-.4-2.8996-.4-3.7995 0-6.4992 1.199-6.4992 5.398v15.596h-11.6985v-31.592h11.3986v5.999c1.1998-3.899 4.7994-6.299 8.1989-6.299h.6999c.3 0 .6 0 .7999.1z"/><path d="m91.3549 237.375c0-10.997 7.999-16.695 17.3981-16.695 9.298 0 17.397 5.598 17.397 16.695 0 11.098-7.999 16.596-17.397 16.596-9.3991 0-17.3981-5.498-17.3981-16.596zm12.0981 0c0 5.899 2.3 7.898 5.3 7.898 2.999 0 5.299-1.999 5.299-7.898 0-5.898-2.3-7.898-5.299-7.898-3 0-5.3 2-5.3 7.898z"/><path d="m146.948 221.679h12.198l4.2 19.895 4.099-19.895h11.299l-8.199 31.592h-12.999l-4.499-20.095-4.299 20.095h-13.099l-8.599-31.592h11.599l4.399 19.895z"/><path d="m205.84 232.277c-2.899-1.2-7.199-2.6-11.198-2.6-2.1 0-2.9.6-2.9 1.4 0 .6.4 1.4 2.5 1.799l4.099.8c6.899 1.2 11.799 3.299 11.799 9.298 0 7.298-5.899 11.097-15.098 11.097-7.899 0-12.999-1.899-16.498-4.099l4.299-8.198c2.9 1.6 6.899 3.199 11.599 3.199 2.2 0 4.099-.499 4.099-1.599s-1.1-1.5-3.599-1.9l-3.3-.6c-6.599-1.099-11.298-3.999-11.298-9.897 0-6.598 6.899-10.097 14.998-10.097 6.199 0 11.598 1.799 14.198 3.199z"/><path d="m213.14 237.075c0-10.097 7.499-16.595 16.997-16.595 10.999 0 17.898 8.697 17.098 19.695h-22.797c.4 3.199 2.6 5.298 6.299 5.298 2.3 0 4.6-1.099 5.3-2.799h10.998c-1.4 4.599-6.699 11.397-16.598 11.397-10.898 0-17.297-7.098-17.297-16.996zm11.498-3.499h12.199c-.3-3.799-3.5-5.098-6-5.098-2.399 0-5.399 1.399-6.199 5.098z"/><path d="m273.332 232.677c-.9-.2-1.8-.4-2.9-.4-3.799 0-6.499 1.199-6.499 5.398v15.596h-11.699v-31.592h11.399v5.999c1.2-3.899 4.799-6.299 8.199-6.299h.7c.3 0 .6 0 .8.1z"/><path d="m302.028 232.277c-2.899-1.2-7.199-2.6-11.198-2.6-2.1 0-2.9.6-2.9 1.4 0 .6.4 1.4 2.5 1.799l4.099.8c6.899 1.2 11.799 3.299 11.799 9.298 0 7.298-5.9 11.097-15.098 11.097-7.899 0-12.999-1.899-16.498-4.099l4.299-8.198c2.9 1.6 6.899 3.199 11.599 3.199 2.199 0 4.099-.499 4.099-1.599s-1.1-1.5-3.599-1.9l-3.3-.6c-6.599-1.099-11.299-3.999-11.299-9.897 0-6.598 6.9-10.097 14.999-10.097 6.199 0 11.598 1.799 14.198 3.199z"/><path d="m345.423 240.974c0-3.299-2.6-4.398-8.299-4.398h-1.8v-9.498h1.9c4.699 0 6.999-2.1 6.999-4.899 0-2.599-2.4-3.899-4.999-3.899-3.1 0-6.1 1.7-6.4 5.899h-11.398c.9-9.598 7.699-14.497 18.897-14.497 9.399 0 15.998 4.399 15.998 11.697 0 4.599-2.499 8.298-5.499 9.698 4 1.4 6.799 4.899 6.799 9.897 0 8.598-8.499 12.997-17.997 12.997-10.999 0-17.798-5.498-18.498-15.296h11.398c.7 4.799 3.2 6.498 7.199 6.498 3.8.1 5.7-1.799 5.7-4.199z"/><path d="m362.421 231.777c0-13.597 6.299-22.095 18.397-22.095 12.199 0 18.498 8.498 18.498 22.095 0 13.596-6.299 22.194-18.398 22.194-12.098 0-18.497-8.598-18.497-22.194zm24.797 0c0-9.998-2.6-13.397-6.4-13.397-3.699 0-6.299 3.499-6.299 13.397 0 9.897 2.6 13.396 6.299 13.396 3.8.1 6.4-3.399 6.4-13.396z"/><path d="m404.315 231.777c0-13.597 6.4-22.095 18.498-22.095 12.199 0 18.398 8.498 18.398 22.095 0 13.596-6.299 22.194-18.398 22.194-12.098 0-18.498-8.598-18.498-22.194zm24.897 0c0-9.998-2.599-13.397-6.399-13.397-3.699 0-6.299 3.499-6.299 13.397 0 9.897 2.6 13.396 6.299 13.396 3.7.1 6.399-3.399 6.399-13.396z"/><path d="m446.21 231.777c0-13.597 6.299-22.095 18.398-22.095 12.198 0 18.397 8.498 18.397 22.095 0 13.596-6.299 22.194-18.397 22.194-11.999 0-18.398-8.598-18.398-22.194zm24.897 0c0-9.998-2.6-13.397-6.399-13.397-3.7 0-6.299 3.499-6.299 13.397 0 9.897 2.599 13.396 6.299 13.396 3.699.1 6.399-3.399 6.399-13.396z"/></g><path d="m473.768 19.1304c5.065 0 9.171-4.1055 9.171-9.16981 0-5.06435-4.106-9.169819-9.171-9.169819s-9.171 4.105469-9.171 9.169819c0 5.06431 4.106 9.16981 9.171 9.16981z" fill="#f33131"/><path d="m440.919 19.1304c5.065 0 9.171-4.1055 9.171-9.16981 0-5.06435-4.106-9.169819-9.171-9.169819-5.064 0-9.17 4.105469-9.17 9.169819 0 5.06431 4.106 9.16981 9.17 9.16981z" fill="#fff915"/><path d="m408.321 19.1304c5.065 0 9.171-4.1055 9.171-9.16981 0-5.06435-4.106-9.169819-9.171-9.169819s-9.171 4.105469-9.171 9.169819c0 5.06431 4.106 9.16981 9.171 9.16981z" fill="#106cff"/></svg>