<svg version="1.1" viewBox="0.0 0.0 582.98687664042 333.1364829396326" fill="none" stroke="none" stroke-linecap="square" stroke-miterlimit="10" xmlns:xlink="http://www.w3.org/1999/xlink" xmlns="http://www.w3.org/2000/svg"><clipPath id="p.0"><path d="m0 0l582.9869 0l0 333.13647l-582.9869 0l0 -333.13647z" clip-rule="nonzero"/></clipPath><g clip-path="url(#p.0)"><path fill="#000000" fill-opacity="0.0" d="m0 0l582.9869 0l0 333.13647l-582.9869 0z" fill-rule="evenodd"/><path fill="#666666" d="m394.73203 19.564322c-32.19989 0 -61.71646 5.745693 -88.54974 17.237085c-26.777924 11.448189 -47.44229 28.231659 -61.993103 50.350433c-14.495483 22.075577 -21.74324 47.952805 -21.74324 77.6317c0 27.216446 6.417862 52.683273 19.253555 76.40047c12.891037 23.717178 31.646637 41.83989 56.266846 54.368088c24.675537 12.485016 56.681793 18.727509 96.0188 18.727509c38.009155 0 70.15375 -8.121735 96.433716 -24.365204c26.335358 -16.286682 44.56534 -39.91745 54.690033 -70.892365l-48.299835 -9.525757c-6.63916 23.976395 -19.336548 42.055893 -38.092163 54.238495c-18.755615 12.182617 -41.660706 18.273895 -68.71524 18.273895c-22.24118 0 -42.90555 -4.4712524 -61.993134 -13.413818c-19.087555 -8.942535 -33.16812 -22.44278 -42.241608 -40.50067c-9.018188 -18.101105 -13.527283 -39.269455 -13.527283 -63.50505c0 -18.792313 3.817505 -37.02301 11.452545 -54.69211c7.63501 -17.712288 20.858002 -31.817322 39.668945 -42.3151c18.866272 -10.497772 42.324615 -15.746658 70.37506 -15.746658c24.398895 0 44.648315 4.7304764 60.74826 14.191437c16.099945 9.460953 28.382385 24.559608 36.84732 45.29595l47.552948 -8.748146c-9.792786 -26.309235 -27.137543 -46.721577 -52.034393 -61.23702c-24.89682 -14.51544 -55.602936 -21.77316 -92.118286 -21.77316z" fill-rule="evenodd"/><path fill="#666666" d="m218.87659 30.051468l0 192.47884c0 16.008133 -2.2232056 27.67543 -6.6696014 35.001923c-4.446396 7.2841187 -12.561066 13.06485 -24.34401 17.342163c-11.782944 4.2349243 -25.789078 6.352417 -42.018417 6.352417c-22.009659 0 -39.239433 -3.938507 -51.68934 -11.815521c-12.449905 -7.877014 -19.452972 -22.487625 -21.009209 -43.831818l-58.35893 4.573761c-0.88927937 27.82367 10.041446 48.786713 32.79216 62.88913c22.824818 14.102386 55.69109 21.153595 98.5988 21.153595c28.901566 0 54.06073 -3.3667908 75.47754 -10.100372c21.490906 -6.7335815 37.16443 -16.516327 47.02063 -29.348236c9.930267 -12.83194 14.895416 -30.936386 14.895416 -54.313354l0 -190.38252z" fill-rule="evenodd"/><path fill="#e06666" d="m321.19815 103.850395l59.165375 0l0 40.960625l-59.165375 0z" fill-rule="evenodd"/><path fill="#b35151" d="m380.36353 103.850395l13.653534 -13.653542l0 40.960632l-13.653534 13.653534z" fill-rule="evenodd"/><path fill="#e68484" d="m321.19815 103.850395l13.653564 -13.653542l59.165344 0l-13.653534 13.653542z" fill-rule="evenodd"/><path fill="#000000" fill-opacity="0.0" d="m321.19815 103.850395l13.653564 -13.653542l59.165344 0l0 40.960632l-13.653534 13.653534l-59.165375 0zm0 0l59.165375 0l13.653534 -13.653542m-13.653534 13.653542l0 40.960625" fill-rule="evenodd"/><path fill="#3c78d8" d="m321.19946 207.83727l59.165375 0l0 40.960632l-59.165375 0z" fill-rule="evenodd"/><path fill="#2f5fac" d="m380.36484 207.83727l13.653534 -13.653534l0 40.960632l-13.653534 13.653534z" fill-rule="evenodd"/><path fill="#6393df" d="m321.19946 207.83727l13.653564 -13.653534l59.165344 0l-13.653534 13.653534z" fill-rule="evenodd"/><path fill="#000000" fill-opacity="0.0" d="m321.19946 207.83727l13.653564 -13.653534l59.165344 0l0 40.960632l-13.653534 13.653534l-59.165375 0zm0 0l59.165375 0l13.653534 -13.653534m-13.653534 13.653534l0 40.960632" fill-rule="evenodd"/><path fill="#93c47d" d="m411.96063 158.46457l59.165344 0l0 40.960632l-59.165344 0z" fill-rule="evenodd"/><path fill="#759c63" d="m471.12598 158.46457l13.653564 -13.653549l0 40.960632l-13.653564 13.653549z" fill-rule="evenodd"/><path fill="#a8cf97" d="m411.96063 158.46457l13.653534 -13.653549l59.165375 0l-13.653564 13.653549z" fill-rule="evenodd"/><path fill="#000000" fill-opacity="0.0" d="m411.96063 158.46457l13.653534 -13.653549l59.165375 0l0 40.960632l-13.653564 13.653549l-59.165344 0zm0 0l59.165344 0l13.653564 -13.653549m-13.653564 13.653549l0 40.960632" fill-rule="evenodd"/><path fill="#f1c232" d="m112.374016 153.22179l59.16535 0l0 40.960632l-59.16535 0z" fill-rule="evenodd"/><path fill="#c09b27" d="m171.53937 153.22179l13.653549 -13.653549l0 40.960632l-13.653549 13.653549z" fill-rule="evenodd"/><path fill="#f3ce5b" d="m112.374016 153.22179l13.653542 -13.653549l59.16536 0l-13.653549 13.653549z" fill-rule="evenodd"/><path fill="#000000" fill-opacity="0.0" d="m112.374016 153.22179l13.653542 -13.653549l59.16536 0l0 40.960632l-13.653549 13.653549l-59.16535 0zm0 0l59.16535 0l13.653549 -13.653549m-13.653549 13.653549l0 40.960632" fill-rule="evenodd"/></g></svg>